{"title":"Married At First Sight Au - S03E02","uid":15777800,"size":490541930,"categoryP":"video","categoryS":"tv_shows","magnet":"?xt=urn:btih:3c20967ad459718a3aaa0ebe994ed00ec6cb2c04&amp;dn=Married+At+First+Sight+Au+-+S03E02&amp;tr=udp%3A%2F%2Ftracker.leechers-paradise.org%3A6969&amp;tr=udp%3A%2F%2Fzer0day.ch%3A1337&amp;tr=udp%3A%2F%2Fopen.demonii.com%3A1337&amp;tr=udp%3A%2F%2Ftracker.coppersurfer.tk%3A6969&amp;tr=udp%3A%2F%2Fexodus.desync.com%3A6969","seeders":6,"leechers":3,"uploader":"Bullrout","files":1,"time":1473253592,"description":"Married At First Sight Au - S03E02\r\n\r\nA day earlier, our first two couples were complete strangers. Now, the morning after the wedding, they wake up together to their new reality as husband and wife. Meanwhile, six more singles come together to comprise our final three couples.\r\n\r\nComplete name : Married At First Sight Au - S03E02.mkv\r\nFormat : Matroska\r\nFormat version : Version 4 / Version 2\r\nFile size : 1.37 GiB\r\nDuration : 58mn 33s\r\nOverall bit rate mode : Variable\r\nOverall bit rate : 3 340 Kbps\r\nEncoded date : UTC 2016-09-07 01:15:21\r\nWriting application : mkvmerge v9.4.0 ('Knurl') 64bit\r\nWriting library : libebml v1.3.4 + libmatroska v1.4.5\r\n\r\nVideo\r\nID : 2\r\nFormat : AVC\r\nFormat/Info : Advanced Video Codec\r\nFormat profile :   \r\nFormat settings, CABAC : Yes\r\nFormat settings, ReFrames : 3 frames\r\nCodec ID : V_MPEG4/ISO/AVC\r\nDuration : 58mn 33s\r\nBit rate mode : Variable\r\nBit rate : 2 954 Kbps\r\nMaximum bit rate : 3 000 Kbps\r\nWidth : 1 280 pixels\r\nHeight : 720 pixels\r\nDisplay aspect ratio : 16:9\r\nFrame rate mode : Constant\r\nFrame rate : 25.000 fps\r\nStandard : PAL\r\nColor space : YUV\r\nChroma subsampling : 4:2:0\r\nBit depth : 8 bits\r\nScan type : Progressive\r\nBits/(Pixel*Frame) : 0.128\r\nStream size : 1.21 GiB (88%)\r\nWriting library : x264 core 112\r\nDefault : Yes\r\nForced : No\r\nColor range : Limited\r\nColor primaries : BT.709\r\nTransfer characteristics : BT.709\r\nMatrix coefficients : BT.709\r\n\r\nAudio\r\nID : 1\r\nFormat : AC-3\r\nFormat/Info : Audio Coding 3\r\nMode extension : CM (complete main)\r\nFormat settings, Endianness : Big\r\nCodec ID : A_AC3\r\nDuration : 58mn 33s\r\nBit rate mode : Constant\r\nBit rate : 384 Kbps\r\nChannel(s) : 6 channels\r\nChannel positions : Front: L C R, Side: L R, LFE\r\nSampling rate : 48.0 KHz\r\nFrame rate : 31.250 fps (1536 spf)\r\nCompression mode : Lossy\r\nStream size : 161 MiB (11%)\r\nDefault : Yes\r\nForced : No","torrent":{"xt":"urn:btih:3c20967ad459718a3aaa0ebe994ed00ec6cb2c04","amp;dn":"Married+At+First+Sight+Au+-+S03E02","amp;tr":["udp%3A%2F%2Ftracker.leechers-paradise.org%3A6969","udp%3A%2F%2Fzer0day.ch%3A1337","udp%3A%2F%2Fopen.demonii.com%3A1337","udp%3A%2F%2Ftracker.coppersurfer.tk%3A6969","udp%3A%2F%2Fexodus.desync.com%3A6969"],"infoHash":"3c20967ad459718a3aaa0ebe994ed00ec6cb2c04","infoHashBuffer":{"type":"Buffer","data":[60,32,150,122,212,89,113,138,58,170,14,190,153,78,208,14,198,203,44,4]},"announce":[],"urlList":[]}}